HIERARCHY
ROOT Root
{
  OFFSET 0.0 0.0 0.0
  CHANNELS 6 Xposition Yposition Zposition Zrotation Yrotation Xrotation
  JOINT Hips
  {
    OFFSET 0.0 100.0 0.0
    CHANNELS 6 Xposition Yposition Zposition Zrotation Yrotation Xrotation
    JOINT Spine1
    {
      OFFSET -0.013727 5.003763 -0.053727
      CHANNELS 3 Zrotation Yrotation Xrotation
      JOINT Spine2
      {
        OFFSET -0.0 7.125301 -0.029825
        CHANNELS 3 Zrotation Yrotation Xrotation
        JOINT Chest
        {
          OFFSET -1e-06 7.550063 -0.815971
          CHANNELS 3 Zrotation Yrotation Xrotation
          JOINT Neck1
          {
            OFFSET -0.181677 26.311295 -0.553348
            CHANNELS 3 Zrotation Yrotation Xrotation
            JOINT Neck2
            {
              OFFSET -3e-06 7.709397 2.302585
              CHANNELS 3 Zrotation Yrotation Xrotation
              JOINT Head
              {
                OFFSET -5e-06 6.128916 1.953709
                CHANNELS 3 Zrotation Yrotation Xrotation
                JOINT HeadEnd
                {
                  OFFSET 0.003598 16.065403 -1.835379
                  CHANNELS 3 Zrotation Yrotation Xrotation
                }
                JOINT Jaw
                {
                  OFFSET 0.002637 0.475592 3.094941
                  CHANNELS 3 Zrotation Yrotation Xrotation
                }
                JOINT LeftEye
                {
                  OFFSET 3.206381 5.380205 7.586883
                  CHANNELS 3 Zrotation Yrotation Xrotation
                }
                JOINT RightEye
                {
                  OFFSET -3.22244 5.361869 7.558234
                  CHANNELS 3 Zrotation Yrotation Xrotation
                }
              }
            }
          }
          JOINT LeftShoulder
          {
            OFFSET 1.621652 23.237164 5.113413
            CHANNELS 3 Zrotation Yrotation Xrotation
            JOINT LeftArm
            {
              OFFSET 14.919846 2e-06 -5.502326
              CHANNELS 3 Zrotation Yrotation Xrotation
              JOINT LeftForeArm
              {
                OFFSET 28.739307 0.0 -0.002588
                CHANNELS 3 Zrotation Yrotation Xrotation
                JOINT LeftHand
                {
                  OFFSET 27.093981 -1e-06 0.002609
                  CHANNELS 3 Zrotation Yrotation Xrotation
                  JOINT LeftHandThumb1
                  {
                    OFFSET 2.276482 -1.392045 3.191413
                    CHANNELS 3 Zrotation Yrotation Xrotation
                    JOINT LeftHandThumb2
                    {
                      OFFSET 4.012836 -1.828127 1.641654
                      CHANNELS 3 Zrotation Yrotation Xrotation
                      JOINT LeftHandThumb3
                      {
                        OFFSET 2.798515 0.0 -3e-06
                        CHANNELS 3 Zrotation Yrotation Xrotation
                        JOINT LeftHandThumbEnd
                        {
                          OFFSET 3.180793 -4e-06 4e-06
                          CHANNELS 3 Zrotation Yrotation Xrotation
                        }
                      }
                    }
                  }
                  JOINT LeftHandIndex1
                  {
                    OFFSET 3.247555 -0.531998 2.296169
                    CHANNELS 3 Zrotation Yrotation Xrotation
                    JOINT LeftHandIndex2
                    {
                      OFFSET 6.364578 0.01206 0.1786
                      CHANNELS 3 Zrotation Yrotation Xrotation
                      JOINT LeftHandIndex3
                      {
                        OFFSET 3.662364 0.0 0.0
                        CHANNELS 3 Zrotation Yrotation Xrotation
                        JOINT LeftHandIndex4
                        {
                          OFFSET 2.329242 4e-06 4e-06
                          CHANNELS 3 Zrotation Yrotation Xrotation
                          JOINT LeftHandIndexEnd
                          {
                            OFFSET 2.759615 -0.180537 -0.113024
                            CHANNELS 3 Zrotation Yrotation Xrotation
                          }
                        }
                      }
                    }
                  }
                  JOINT LeftHandMiddle1
                  {
                    OFFSET 3.163495 0.240981 1.000332
                    CHANNELS 3 Zrotation Yrotation Xrotation
                    JOINT LeftHandMiddle2
                    {
                      OFFSET 6.19078 -0.259278 -1.002548
                      CHANNELS 3 Zrotation Yrotation Xrotation
                      JOINT LeftHandMiddle3
                      {
                        OFFSET 4.35652 -4e-06 -1e-06
                        CHANNELS 3 Zrotation Yrotation Xrotation
                        JOINT LeftHandMiddle4
                        {
                          OFFSET 2.996877 -8e-06 0.0
                          CHANNELS 3 Zrotation Yrotation Xrotation
                          JOINT LeftHandMiddleEnd
                          {
                            OFFSET 2.304287 -0.294569 -0.031741
                            CHANNELS 3 Zrotation Yrotation Xrotation
                          }
                        }
                      }
                    }
                  }
                  JOINT LeftHandRing1
                  {
                    OFFSET 2.882643 -0.053652 -0.322543
                    CHANNELS 3 Zrotation Yrotation Xrotation
                    JOINT LeftHandRing2
                    {
                      OFFSET 5.854541 -0.486202 -1.373841
                      CHANNELS 3 Zrotation Yrotation Xrotation
                      JOINT LeftHandRing3
                      {
                        OFFSET 4.350578 0.0 3e-06
                        CHANNELS 3 Zrotation Yrotation Xrotation
                        JOINT LeftHandRing4
                        {
                          OFFSET 2.651321 7e-06 2e-06
                          CHANNELS 3 Zrotation Yrotation Xrotation
                          JOINT LeftHandRingEnd
                          {
                            OFFSET 1.936105 0.077687 -7.1e-05
                            CHANNELS 3 Zrotation Yrotation Xrotation
                          }
                        }
                      }
                    }
                  }
                  JOINT LeftHandPinky1
                  {
                    OFFSET 2.8655 -0.310005 -1.600378
                    CHANNELS 3 Zrotation Yrotation Xrotation
                    JOINT LeftHandPinky2
                    {
                      OFFSET 5.087849 -1.331141 -1.77123
                      CHANNELS 3 Zrotation Yrotation Xrotation
                      JOINT LeftHandPinky3
                      {
                        OFFSET 3.070974 4e-06 0.0
                        CHANNELS 3 Zrotation Yrotation Xrotation
                        JOINT LeftHandPinky4
                        {
                          OFFSET 1.549672 0.0 1e-06
                          CHANNELS 3 Zrotation Yrotation Xrotation
                          JOINT LeftHandPinkyEnd
                          {
                            OFFSET 1.944893 -0.157802 0.057219
                            CHANNELS 3 Zrotation Yrotation Xrotation
                          }
                        }
                      }
                    }
                  }
                }
              }
            }
          }
          JOINT RightShoulder
          {
            OFFSET -1.380118 23.180309 5.214158
            CHANNELS 3 Zrotation Yrotation Xrotation
            JOINT RightArm
            {
              OFFSET -15.037196 1.2e-05 -5.545604
              CHANNELS 3 Zrotation Yrotation Xrotation
              JOINT RightForeArm
              {
                OFFSET -28.736639 2e-06 -0.002597
                CHANNELS 3 Zrotation Yrotation Xrotation
                JOINT RightHand
                {
                  OFFSET -27.133619 -0.0 0.002613
                  CHANNELS 3 Zrotation Yrotation Xrotation
                  JOINT RightHandThumb1
                  {
                    OFFSET -2.274032 -1.383988 3.163127
                    CHANNELS 3 Zrotation Yrotation Xrotation
                    JOINT RightHandThumb2
                    {
                      OFFSET -4.011429 -1.827466 1.640914
                      CHANNELS 3 Zrotation Yrotation Xrotation
                      JOINT RightHandThumb3
                      {
                        OFFSET -2.794935 -4e-06 -3e-06
                        CHANNELS 3 Zrotation Yrotation Xrotation
                        JOINT RightHandThumbEnd
                        {
                          OFFSET -3.183852 4e-06 1e-06
                          CHANNELS 3 Zrotation Yrotation Xrotation
                        }
                      }
                    }
                  }
                  JOINT RightHandIndex1
                  {
                    OFFSET -3.253266 -0.520057 2.282866
                    CHANNELS 3 Zrotation Yrotation Xrotation
                    JOINT RightHandIndex2
                    {
                      OFFSET -6.341917 0.012471 0.178266
                      CHANNELS 3 Zrotation Yrotation Xrotation
                      JOINT RightHandIndex3
                      {
                        OFFSET -3.654871 -8e-06 -0.0
                        CHANNELS 3 Zrotation Yrotation Xrotation
                        JOINT RightHandIndex4
                        {
                          OFFSET -2.327586 0.0 1e-06
                          CHANNELS 3 Zrotation Yrotation Xrotation
                          JOINT RightHandIndexEnd
                          {
                            OFFSET -2.76179 -0.180656 -0.113078
                            CHANNELS 3 Zrotation Yrotation Xrotation
                          }
                        }
                      }
                    }
                  }
                  JOINT RightHandMiddle1
                  {
                    OFFSET -3.168106 0.246593 1.00103
                    CHANNELS 3 Zrotation Yrotation Xrotation
                    JOINT RightHandMiddle2
                    {
                      OFFSET -6.180828 -0.258836 -1.000895
                      CHANNELS 3 Zrotation Yrotation Xrotation
                      JOINT RightHandMiddle3
                      {
                        OFFSET -4.348901 0.0 -0.0
                        CHANNELS 3 Zrotation Yrotation Xrotation
                        JOINT RightHandMiddle4
                        {
                          OFFSET -3.00024 -4e-06 -2e-06
                          CHANNELS 3 Zrotation Yrotation Xrotation
                          JOINT RightHandMiddleEnd
                          {
                            OFFSET -2.30252 -0.29437 -0.031706
                            CHANNELS 3 Zrotation Yrotation Xrotation
                          }
                        }
                      }
                    }
                  }
                  JOINT RightHandRing1
                  {
                    OFFSET -2.88569 -0.067952 -0.308858
                    CHANNELS 3 Zrotation Yrotation Xrotation
                    JOINT RightHandRing2
                    {
                      OFFSET -5.854198 -0.48613 -1.373731
                      CHANNELS 3 Zrotation Yrotation Xrotation
                      JOINT RightHandRing3
                      {
                        OFFSET -4.33881 -4e-06 -0.0
                        CHANNELS 3 Zrotation Yrotation Xrotation
                        JOINT RightHandRing4
                        {
                          OFFSET -2.654903 -4e-06 4e-06
                          CHANNELS 3 Zrotation Yrotation Xrotation
                          JOINT RightHandRingEnd
                          {
                            OFFSET -1.933568 0.077527 -5.2e-05
                            CHANNELS 3 Zrotation Yrotation Xrotation
                          }
                        }
                      }
                    }
                  }
                  JOINT RightHandPinky1
                  {
                    OFFSET -2.866425 -0.342796 -1.584145
                    CHANNELS 3 Zrotation Yrotation Xrotation
                    JOINT RightHandPinky2
                    {
                      OFFSET -5.091371 -1.332055 -1.772385
                      CHANNELS 3 Zrotation Yrotation Xrotation
                      JOINT RightHandPinky3
                      {
                        OFFSET -3.062664 -4e-06 1e-06
                        CHANNELS 3 Zrotation Yrotation Xrotation
                        JOINT RightHandPinky4
                        {
                          OFFSET -1.546529 4e-06 -2e-06
                          CHANNELS 3 Zrotation Yrotation Xrotation
                          JOINT RightHandPinkyEnd
                          {
                            OFFSET -1.945119 -0.157718 0.057211
                            CHANNELS 3 Zrotation Yrotation Xrotation
                          }
                        }
                      }
                    }
                  }
                }
              }
            }
          }
        }
      }
    }
    JOINT LeftLeg
    {
      OFFSET 10.043214 -8.434526 2.595655
      CHANNELS 3 Zrotation Yrotation Xrotation
      JOINT LeftShin
      {
        OFFSET -1e-06 -43.221752 -0.802913
        CHANNELS 3 Zrotation Yrotation Xrotation
        JOINT LeftFoot
        {
          OFFSET 1e-06 -42.155094 -3.481523
          CHANNELS 3 Zrotation Yrotation Xrotation
          JOINT LeftToeBase
          {
            OFFSET 0.0 -5.059472 13.231529
            CHANNELS 3 Zrotation Yrotation Xrotation
            JOINT LeftToeEnd
            {
              OFFSET -0.009607 -1.647619 6.513017
              CHANNELS 3 Zrotation Yrotation Xrotation
            }
          }
        }
      }
    }
    JOINT RightLeg
    {
      OFFSET -10.047278 -8.29526 2.620317
      CHANNELS 3 Zrotation Yrotation Xrotation
      JOINT RightShin
      {
        OFFSET 1e-06 -43.362206 -0.805556
        CHANNELS 3 Zrotation Yrotation Xrotation
        JOINT RightFoot
        {
          OFFSET 2e-06 -42.117393 -3.478398
          CHANNELS 3 Zrotation Yrotation Xrotation
          JOINT RightToeBase
          {
            OFFSET -0.0 -5.079609 13.284196
            CHANNELS 3 Zrotation Yrotation Xrotation
            JOINT RightToeEnd
            {
              OFFSET 0.009532 -1.634378 6.460591
              CHANNELS 3 Zrotation Yrotation Xrotation
            }
          }
        }
      }
    }
  }
}
MOTION
Frames: 4
Frame Time: 0.03333333333333333
0.0 0.0 0.0 0.0 -0.0 0.0 0.0 100.0 0.0 0.0 -0.0 0.0 0.0 -0.0 0.0 0.0 -0.0 0.0 0.0 -0.0 0.0 0.0 -0.0 0.0 0.0 -0.0 0.0 -0.0 -0.899998 -12.149938 7.7e-05 -2.2e-05 6e-06 -0.0 -0.0 -0.0 -0.0 -0.0 -0.0 -0.0 -0.0 -0.0 0.0 -0.0 0.0 -53.387947 -10.462402 5.069675 -2.14331 0.345981 0.003826 0.0 0.0 -0.0 -5.882106 9.861284 0.70259 -10.936873 -0.360575 7.156205 0.0 8.774823 -1e-06 -1e-06 -0.0 -0.0 -1.844034 2.498504 -2.507278 -10.163599 4.678944 4.621108 -20.976027 -4e-06 2e-06 -21.226292 2.451696 -3.594 0.0 -6e-06 -0.0 -1.362682 2.240797 -0.746323 -21.334913 0.584909 3.008323 -13.821213 -3e-06 2e-06 -23.887171 -0.249079 -0.839482 -1e-06 -0.0 -0.0 -0.294025 1.679686 0.833255 -14.218212 0.093214 1.30058 -34.212051 -0.287565 0.967171 -20.033215 0.964536 1.212845 1e-06 0.0 -0.0 -3.44039 0.788233 0.501655 -15.928189 -3.167309 2.999707 -6.338827 -1e-06 1e-06 -18.123449 3.648181 -4.90567 -4e-06 0.0 -2e-06 0.0 -0.0 0.0 111.426811 27.706366 37.234535 34.705791 18.477484 3.715975 0.0 0.0 0.0 2.243543 -5.255035 -3.180157 14.282891 -0.826594 6.952502 -3e-06 -12.690601 -0.0 0.0 -1e-06 -0.0 1.665666 -1.955921 -2.878299 4.7278 -4.170587 4.993924 11.020526 3e-06 -1e-06 12.109052 -3.735713 -2.866783 -0.0 0.0 -0.0 1.291984 -1.928548 -1.498087 14.800127 0.567469 3.865607 14.24257 -1.341736 -6.660658 19.631969 0.143927 -0.648244 -0.0 0.0 -0.0 0.353028 -1.51115 -0.03194 20.222794 3.684311 2.316629 18.787275 5e-06 0.0 10.751627 -0.479868 1.397906 1e-06 -1e-06 1e-06 3.273807 0.305947 -0.580111 21.486818 11.830376 2.266134 8.162928 2e-06 1e-06 18.399084 -3.798984 -4.940573 2e-06 1e-06 -1e-06 86.365303 -13.670341 12.428481 1.2307 -0.065278 -3.370676 -0.0 0.0 -0.0 -0.0 0.0 -0.0 0.0 0.0 2e-06 0.0 -0.0 0.0 0.0 -0.0 0.0 0.0 -0.0 0.0 0.0 -0.0 0.0 0.0 -0.0 -1e-06 
0.0 0.0 0.0 0.0 -0.0 0.0 -0.687234 99.39328 -0.371033 -0.865252 0.528594 0.416763 0.547201 0.229601 -0.706211 -0.052487 -0.023814 -0.617073 0.308655 0.3999 1.080624 0.66978 -0.052498 -0.014007 -0.569763 -1.00913 -0.121108 0.693364 -2.27671 -12.109861 7.7e-05 -2.3e-05 6e-06 -0.013466 -0.146824 0.015779 0.005483 -0.406096 -0.76624 -0.082334 0.118377 -0.748912 0.772659 -1.245668 -0.146206 -53.310318 -9.067886 -0.002416 -2.99162 -1.007156 0.019773 1.455296 0.284412 0.86312 -5.882102 9.861282 0.702591 -10.936864 -0.360574 7.156202 1e-06 8.774822 0.0 -1.538687 1.140992 0.628553 -1.84403 2.498503 -2.507276 -10.163594 4.678944 4.621108 -20.976007 -3e-06 2e-06 -21.226273 2.451696 -3.593999 -1e-06 -6e-06 -1e-06 -1.362681 2.240798 -0.746323 -21.3349 0.58491 3.008322 -13.821204 -2e-06 2e-06 -23.887152 -0.249078 -0.839483 -4.109912 -0.094614 0.167663 -0.294026 1.679687 0.833256 -14.218198 0.093215 1.30058 -34.212021 -0.287562 0.96717 -20.033197 0.964537 1.212842 1e-06 0.0 0.0 -3.440386 0.788233 0.501655 -15.928177 -3.167308 2.999706 -6.338822 -1e-06 2e-06 -18.123436 3.648183 -4.905668 -4e-06 -0.0 -2e-06 1.402526 0.843446 0.114487 108.808075 27.29846 39.307426 32.069382 20.455318 4.056344 1.514558 -2.180655 -1.037474 2.243539 -5.255034 -3.180156 14.282881 -0.826593 6.952501 -2e-06 -12.690596 -0.0 0.961234 -1.482116 0.676745 1.665665 -1.955921 -2.878298 4.727797 -4.170584 4.993921 11.020519 2e-06 0.0 12.109043 -3.735716 -2.866781 -0.0 -0.0 -1e-06 1.291986 -1.928548 -1.498089 14.800118 0.567469 3.865606 14.242562 -1.341736 -6.660655 19.631954 0.143925 -0.648242 3.304893 -0.426613 -0.247126 0.353028 -1.511151 -0.031941 20.222776 3.684308 2.316631 18.787256 4e-06 1e-06 10.75162 -0.479868 1.397905 1e-06 -1e-06 -0.0 3.273804 0.305947 -0.580111 21.486799 11.830367 2.266134 8.162921 1e-06 2e-06 18.399069 -3.798982 -4.940571 2e-06 -0.0 -1e-06 86.813576 -13.408553 11.198525 1.752933 -0.75021 -1.155315 0.774864 -1.262954 -0.38293 0.312957 -0.084933 -0.537676 0.0 0.0 2e-06 1.418149 -0.796639 -4.969399 -0.087866 0.061549 8.756042 -0.440904 1.566445 -3.983025 -0.11349 0.124134 0.244501 0.0 0.0 -1e-06 
0.0 0.0 0.0 0.0 -0.0 0.0 -1.628149 99.296349 -0.992639 -1.538158 0.97729 0.708476 0.78604 0.414245 -0.980648 -0.026811 0.065667 -0.975832 0.522581 0.695656 1.970963 0.802866 -0.292629 -0.639519 -0.69206 -1.346411 -0.435999 1.476329 -3.001354 -11.787815 7.7e-05 -2.3e-05 6e-06 -0.035616 -0.175349 0.028148 0.002981 -0.704876 -1.538517 -0.126033 0.369893 -1.519324 0.951453 -2.093419 -0.575295 -53.733376 -8.372979 -2.910328 -2.798442 -2.662468 0.060373 2.444008 0.999917 -1.646008 -5.882107 9.86129 0.702593 -10.936878 -0.360574 7.15621 1e-06 8.774831 1e-06 -2.91724 2.696291 1.185841 -1.844033 2.498505 -2.507279 -10.163609 4.678948 4.621112 -20.97604 -4e-06 3e-06 -21.226301 2.451698 -3.594001 0.0 -6e-06 -0.0 -1.362685 2.240799 -0.746324 -21.334929 0.58491 3.008325 -13.821221 -3e-06 2e-06 -23.887182 -0.249079 -0.839483 -8.171944 0.334023 0.187533 -0.294023 1.679688 0.833257 -14.218219 0.093216 1.300581 -34.21207 -0.287564 0.967172 -20.033226 0.964538 1.212844 1e-06 0.0 -0.0 -3.44039 0.788234 0.501656 -15.928196 -3.16731 2.999709 -6.33883 -1e-06 1e-06 -18.123457 3.648185 -4.905672 -4e-06 0.0 -2e-06 2.694478 2.137936 0.232873 106.01358 26.988787 41.049953 29.481039 22.873701 4.435096 3.090802 -4.000957 -2.932851 2.243543 -5.255037 -3.180159 14.282889 -0.826594 6.952503 -1e-06 -12.690607 -1e-06 2.273623 -2.597843 1.246676 1.665667 -1.955922 -2.878302 4.727798 -4.170588 4.993926 11.020526 3e-06 -2e-06 12.109053 -3.735716 -2.866785 -0.0 -0.0 -1e-06 1.291986 -1.928549 -1.498089 14.800129 0.567469 3.865608 14.242574 -1.341734 -6.660662 19.631969 0.143929 -0.648245 6.454347 -0.680186 -0.60957 0.353028 -1.511151 -0.031941 20.222797 3.684312 2.316629 18.787273 5e-06 -1e-06 10.751628 -0.479869 1.397907 1e-06 -0.0 1e-06 3.273808 0.305948 -0.580112 21.486816 11.830379 2.266133 8.162928 2e-06 1e-06 18.399084 -3.798985 -4.940575 3e-06 0.0 -1e-06 84.750679 -15.997261 9.485407 2.524301 -0.370586 5.596267 1.357293 2.656372 -2.808557 0.444585 -0.268336 -0.884713 0.0 0.0 2e-06 2.787209 -1.267357 -5.740013 -0.107311 0.08299 8.846197 -0.837257 2.97337 -3.308559 -0.225374 0.192008 0.444942 0.0 -0.0 -1e-06 
0.0 0.0 0.0 0.0 -0.0 0.0 -2.39373 99.09108 -1.670062 -1.837687 1.175083 1.062076 0.909568 0.608812 -1.081125 -0.034216 0.173259 -1.330905 0.455091 0.914364 2.680841 0.849328 -0.411906 -1.493326 -0.675951 -1.561891 -0.68338 1.784172 -3.393239 -11.456259 7.7e-05 -2.2e-05 6e-06 -0.047774 -0.154965 0.036738 0.017037 -0.942984 -2.28432 -0.152959 0.649001 -2.27592 1.156234 -2.631837 -0.636271 -54.168095 -8.118461 -5.328943 -2.751127 -4.375584 0.118609 3.111763 1.9974 -4.110982 -5.882112 9.861293 0.702592 -10.93688 -0.360574 7.156211 1e-06 8.774833 0.0 -4.182796 4.027837 1.719163 -1.844036 2.498507 -2.50728 -10.16361 4.67895 4.621113 -20.976044 -4e-06 1e-06 -21.226305 2.451698 -3.594003 0.0 -6e-06 -1e-06 -1.362681 2.2408 -0.746324 -21.334934 0.584911 3.008324 -13.821227 -3e-06 1e-06 -23.887196 -0.24908 -0.839485 -12.490766 0.595986 0.115623 -0.294025 1.679688 0.833256 -14.21822 0.093215 1.300581 -34.212082 -0.287565 0.96717 -20.033232 0.964537 1.212844 1e-06 0.0 -0.0 -3.440392 0.788234 0.501656 -15.928201 -3.167312 2.999709 -6.338833 -1e-06 1e-06 -18.123465 3.648186 -4.905674 -4e-06 0.0 -2e-06 3.821506 3.169539 0.663598 103.62368 27.190952 43.049191 26.801628 25.154514 4.567743 4.00448 -5.146583 -5.114623 2.243543 -5.255039 -3.18016 14.282898 -0.826591 6.952507 -4e-06 -12.690615 0.0 3.56346 -3.766334 1.749802 1.665667 -1.955923 -2.8783 4.7278 -4.17059 4.993926 11.020531 6e-06 -2e-06 12.109056 -3.735717 -2.866784 0.0 0.0 -1e-06 1.291986 -1.92855 -1.498091 14.800138 0.567472 3.865609 14.242579 -1.341734 -6.660661 19.631977 0.143932 -0.648245 9.836205 -0.872223 -0.970007 0.353028 -1.511151 -0.03194 20.222801 3.684316 2.316632 18.787283 8e-06 2e-06 10.751634 -0.479868 1.397906 1e-06 -1e-06 1e-06 3.273807 0.305946 -0.580112 21.486826 11.830386 2.266133 8.16293 3e-06 1e-06 18.399088 -3.798983 -4.940579 3e-06 0.0 -1e-06 81.608429 -19.298622 8.002442 3.487893 0.210256 14.387094 1.403858 6.812002 -5.736082 0.671308 -0.385492 -1.211867 -0.0 0.0 2e-06 3.688347 -1.469598 -7.634082 -0.131589 0.107242 10.996754 -1.014556 4.115991 -3.773718 -0.316997 0.244579 0.569928 -0.0 -0.0 -1e-06 
